<svg width="15" height="18" viewBox="0 0 15 18" fill="none" xmlns="http://www.w3.org/2000/svg">
<path d="M13.125 6H12.1875V4.28571C12.1875 1.92 10.0875 0 7.5 0C4.9125 0 2.8125 1.92 2.8125 4.28571V6H1.875C0.84375 6 0 6.77143 0 7.71429V16.2857C0 17.2286 0.84375 18 1.875 18H13.125C14.1562 18 15 17.2286 15 16.2857V7.71429C15 6.77143 14.1562 6 13.125 6ZM7.5 13.7143C6.46875 13.7143 5.625 12.9429 5.625 12C5.625 11.0571 6.46875 10.2857 7.5 10.2857C8.53125 10.2857 9.375 11.0571 9.375 12C9.375 12.9429 8.53125 13.7143 7.5 13.7143ZM10.4062 6H4.59375V4.28571C4.59375 2.82 5.89687 1.62857 7.5 1.62857C9.10313 1.62857 10.4062 2.82 10.4062 4.28571V6Z" fill="#181C2E"/>
</svg>
